<svg width="241" height="241" viewBox="0 0 241 241" fill="none" xmlns="http://www.w3.org/2000/svg">
<mask id="mask0_405_13" style="mask-type:luminance" maskUnits="userSpaceOnUse" x="0" y="0" width="241" height="241">
<path d="M224.642 240.687H16.0458C7.18051 240.687 0 233.507 0 224.642V16.0458C0 7.18051 7.18051 0 16.0458 0H224.642C233.507 0 240.687 7.18051 240.687 16.0458V224.642C240.687 233.507 233.507 240.687 224.642 240.687Z" fill="white"/>
</mask>
<g mask="url(#mask0_405_13)">
<path opacity="0.7" d="M60.1719 64.1836H56.1604V60.1721C56.1604 57.9658 54.3553 56.1606 52.149 56.1606H20.0573C17.851 56.1606 16.0459 57.9658 16.0459 60.1721V64.1836H12.0344C9.8281 64.1836 8.02295 65.9887 8.02295 68.195V208.596H64.1833V68.195C64.1833 65.9887 62.3782 64.1836 60.1719 64.1836Z" fill="url(#paint0_linear_405_13)"/>
<path opacity="0.7" d="M228.653 88.2521H224.642V84.2407C224.642 82.0344 222.836 80.2292 220.63 80.2292H172.493C170.286 80.2292 168.481 82.0344 168.481 84.2407V88.2521H164.47C162.263 88.2521 160.458 90.0573 160.458 92.2636V200.573H136.39V52.149C136.39 49.9427 134.584 48.1376 132.378 48.1376H128.367V36.1032C128.367 33.8969 126.562 32.0917 124.355 32.0917H116.332V20.0574C116.332 17.8511 114.527 16.0459 112.321 16.0459H104.298C102.092 16.0459 100.286 17.8511 100.286 20.0574V32.0917H92.2636C90.0573 32.0917 88.2521 33.8969 88.2521 36.1032V48.1376H84.2406C82.0343 48.1376 80.2292 49.9427 80.2292 52.149V224.642H232.665V92.2636C232.665 90.0573 230.859 88.2521 228.653 88.2521Z" fill="url(#paint1_linear_405_13)"/>
<path d="M67.9943 140.38C109.914 140.461 143.831 174.498 143.751 216.418C143.67 258.317 109.633 292.234 67.7335 292.174C25.8339 292.094 -8.08302 258.057 -8.00279 216.157C-7.94262 174.217 26.0946 140.32 67.9943 140.38Z" fill="url(#paint2_radial_405_13)"/>
<path d="M200.332 153.138C235.593 153.198 264.114 181.84 264.054 217.08C263.994 252.321 235.372 280.863 200.112 280.802C164.871 280.742 136.329 252.1 136.41 216.86C136.45 181.599 165.092 153.078 200.332 153.138Z" fill="url(#paint3_radial_405_13)"/>
<path d="M236.676 112.321H196.561C194.355 112.321 192.55 114.126 192.55 116.332V200.573H176.504V140.401C176.504 138.195 174.699 136.39 172.493 136.39H108.309C106.103 136.39 104.298 138.195 104.298 140.401V216.619H88.2521V108.309C88.2521 106.103 86.4469 104.298 84.2406 104.298H28.0802C25.8739 104.298 24.0687 106.103 24.0687 108.309V160.458H4.01146C1.80516 160.458 0 162.263 0 164.47V224.642H240.687V116.332C240.687 114.126 238.882 112.321 236.676 112.321Z" fill="url(#paint4_linear_405_13)"/>
<path d="M233.266 172.994C225.123 177.006 218.404 183.444 214.031 191.387C212.848 192.771 211.885 194.435 211.183 196.421C211.143 196.561 211.083 196.702 211.043 196.842C210.702 197.865 209.639 198.407 208.576 198.146C207.934 197.986 207.292 197.905 206.61 197.905C203.922 197.905 201.455 199.169 199.45 201.315C198.026 202.839 195.619 202.9 193.974 201.616C189.662 198.286 184.326 196.321 178.55 196.321C174.137 196.321 169.985 197.484 166.355 199.49C164.61 200.453 162.444 199.851 161.261 198.246C154.12 188.539 142.848 182.241 130.132 182.241C120.504 182.241 111.719 185.851 104.9 191.808C104.137 192.49 103.014 192.49 102.232 191.828C100.427 190.263 98.3208 189.361 96.0543 189.361C93.848 189.361 91.7821 190.223 90.0171 191.708C89.3351 192.289 88.3724 192.309 87.6102 191.828C83.2177 189 78.0429 187.355 72.487 187.355C64.6647 187.355 57.6045 190.604 52.4498 195.839C51.6676 196.642 50.404 196.581 49.5816 195.799C47.6762 193.954 45.3696 192.851 42.8825 192.851C40.1547 192.851 37.6475 194.155 35.6418 196.341C34.8596 197.203 33.5157 197.284 32.7335 196.441C25.573 188.739 15.5043 183.925 4.35243 183.965C1.9255 184.046 0 186.071 0 188.498V240.687H240.687V177.647C240.687 173.837 236.676 171.309 233.266 172.994Z" fill="url(#paint5_linear_405_13)"/>
</g>
<defs>
<linearGradient id="paint0_linear_405_13" x1="36.1031" y1="158.453" x2="36.1031" y2="62.3824" gradientUnits="userSpaceOnUse">
<stop stop-color="#7B1FA2"/>
<stop offset="0.2915" stop-color="#681B9A"/>
<stop offset="0.7231" stop-color="#521690"/>
<stop offset="1" stop-color="#4A148C"/>
</linearGradient>
<linearGradient id="paint1_linear_405_13" x1="156.447" y1="203.241" x2="156.447" y2="27.3763" gradientUnits="userSpaceOnUse">
<stop stop-color="#7B1FA2"/>
<stop offset="0.2915" stop-color="#681B9A"/>
<stop offset="0.7231" stop-color="#521690"/>
<stop offset="1" stop-color="#4A148C"/>
</linearGradient>
<radialGradient id="paint2_radial_405_13" cx="0" cy="0" r="1" gradientUnits="userSpaceOnUse" gradientTransform="translate(67.8549 216.272) rotate(-89.8911) scale(75.8869 75.8869)">
<stop stop-color="#FF8A80"/>
<stop offset="0.0596" stop-color="#EC8076"/>
<stop offset="0.3276" stop-color="#99534D"/>
<stop offset="0.565" stop-color="#572F2C"/>
<stop offset="0.7629" stop-color="#281614"/>
<stop offset="0.9139" stop-color="#0B0605"/>
<stop offset="1"/>
</radialGradient>
<radialGradient id="paint3_radial_405_13" cx="0" cy="0" r="1" gradientUnits="userSpaceOnUse" gradientTransform="translate(200.212 216.966) rotate(-89.8911) scale(63.8304 63.8304)">
<stop stop-color="#FF8A80"/>
<stop offset="0.0596" stop-color="#EC8076"/>
<stop offset="0.3276" stop-color="#99534D"/>
<stop offset="0.565" stop-color="#572F2C"/>
<stop offset="0.7629" stop-color="#281614"/>
<stop offset="0.9139" stop-color="#0B0605"/>
<stop offset="1"/>
</radialGradient>
<linearGradient id="paint4_linear_405_13" x1="120.344" y1="227.309" x2="120.344" y2="114.276" gradientUnits="userSpaceOnUse">
<stop stop-color="#622F82"/>
<stop offset="0.0001" stop-color="#6A1B9A"/>
<stop offset="0.359375" stop-color="#6749B6"/>
<stop offset="0.8042" stop-color="#0F084F"/>
<stop offset="1" stop-color="#000543"/>
</linearGradient>
<linearGradient id="paint5_linear_405_13" x1="120.344" y1="241.69" x2="120.344" y2="183.659" gradientUnits="userSpaceOnUse">
<stop stop-color="#111762"/>
<stop offset="0.2853" stop-color="#0B114D"/>
<stop offset="0.7382" stop-color="#030831"/>
<stop offset="1" stop-color="#000526"/>
</linearGradient>
</defs>
</svg>
